<svg aria-hidden="true" style="position: absolute; width: 0; height: 0; overflow: hidden;"
    version="1.1" xmlns="http://www.w3.org/2000/svg" xmlns:xlink="http://www.w3.org/1999/xlink">
    <defs>
        <symbol id="icon-arrowBottom" viewBox="0 0 9 32">
            <path
                d="M4.167 31.261c0.223 0.223 0.585 0.223 0.808 0l3.637-3.637c0.223-0.223 0.223-0.585 0-0.808s-0.585-0.223-0.808 0l-3.232 3.232-3.232-3.232c-0.223-0.223-0.585-0.223-0.808 0s-0.223 0.585 0 0.808l3.637 3.637zM4 0v30.857h1.143v-30.857h-1.143z" />
        </symbol>
        <symbol id="icon-arrowRight" viewBox="0 0 32 32">
            <path
                d="M0.743 17.257c-0.694-0.694-0.694-1.82 0-2.514l11.314-11.314c0.694-0.694 1.82-0.694 2.514 0s0.694 1.82 0 2.514l-10.057 10.057 10.057 10.057c0.694 0.694 0.694 1.82 0 2.514s-1.82 0.694-2.514 0l-11.314-11.314zM30 17.778h-28v-3.556h28v3.556z" />
        </symbol>
        <symbol id="icon-mail" viewBox="0 0 43 32">
            <path
                d="M38.667 0h-34.667c-2.208 0-4 1.792-4 4v24c0 2.208 1.792 4 4 4h34.667c2.208 0 4-1.792 4-4v-24c0-2.208-1.792-4-4-4zM4 2.667h34.667c0.733 0 1.333 0.6 1.333 1.333v3.45c-1.825 1.542-4.433 3.667-12.55 10.108-1.408 1.117-4.183 3.808-6.117 3.775-1.933 0.033-4.717-2.658-6.117-3.775-8.117-6.442-10.725-8.567-12.55-10.108v-3.45c0-0.733 0.6-1.333 1.333-1.333zM38.667 29.333h-34.667c-0.733 0-1.333-0.6-1.333-1.333v-17.083c1.9 1.558 4.9 3.967 10.892 8.725 1.708 1.367 4.725 4.375 7.775 4.358 3.033 0.025 6.025-2.958 7.775-4.358 5.992-4.758 8.992-7.167 10.892-8.725v17.083c0 0.733-0.6 1.333-1.333 1.333z" />
        </symbol>
        <symbol id="icon-phone" viewBox="0 0 20 32">
            <path
                d="M13.903 5.959v14.897h-7.945v-14.897h7.945zM16.883 0h-13.903c-1.645 0-2.979 1.335-2.979 2.979v25.821c0 1.645 1.335 2.979 2.979 2.979h13.903c1.645 0 2.979-1.334 2.979-2.979v-25.821c0-1.645-1.334-2.979-2.979-2.979zM2.979 29.793c-0.546 0-0.993-0.447-0.993-0.993v-25.821c0-0.546 0.447-0.993 0.993-0.993h13.903c0.546 0 0.993 0.447 0.993 0.993v25.821c0 0.546-0.447 0.993-0.993 0.993h-13.903zM15.145 3.972h-10.428c-0.41 0-0.745 0.335-0.745 0.745v17.379c0 0.41 0.335 0.745 0.745 0.745h10.428c0.41 0 0.745-0.335 0.745-0.745v-17.379c0-0.41-0.335-0.745-0.745-0.745zM12.166 25.821h-4.469c-0.41 0-0.745 0.335-0.745 0.745v0.497c0 0.41 0.335 0.745 0.745 0.745h4.469c0.41 0 0.745-0.335 0.745-0.745v-0.497c0-0.41-0.335-0.745-0.745-0.745z" />
        </symbol>
        <symbol id="icon-sliderArrow" viewBox="0 0 60 32">
            <path
                d="M57.414 17.414c0.781-0.781 0.781-2.047 0-2.828l-12.728-12.728c-0.781-0.781-2.048-0.781-2.828 0s-0.781 2.047 0 2.828l11.314 11.314-11.314 11.314c-0.781 0.781-0.781 2.047 0 2.828s2.047 0.781 2.828 0l12.728-12.728zM0 18h56v-4h-56v4z" />
        </symbol>
        <symbol id="icon-twitter" viewBox="0 0 38 32">
            <path opacity="0.9"
                d="M34.453 7.773c0.024 0.341 0.024 0.682 0.024 1.023 0 10.404-7.919 22.392-22.392 22.392-4.459 0-8.601-1.291-12.085-3.533 0.634 0.073 1.243 0.097 1.901 0.097 3.679 0 7.066-1.243 9.771-3.362-3.46-0.073-6.359-2.339-7.358-5.458 0.487 0.073 0.975 0.122 1.486 0.122 0.707 0 1.413-0.098 2.071-0.268-3.606-0.731-6.311-3.899-6.311-7.724v-0.097c1.048 0.585 2.266 0.95 3.557 0.999-2.12-1.413-3.509-3.825-3.509-6.554 0-1.462 0.39-2.802 1.072-3.972 3.874 4.776 9.698 7.894 16.227 8.236-0.122-0.585-0.195-1.194-0.195-1.803 0-4.337 3.509-7.87 7.87-7.87 2.266 0 4.313 0.95 5.75 2.485 1.779-0.341 3.484-0.999 4.995-1.901-0.585 1.827-1.827 3.362-3.46 4.337 1.584-0.17 3.119-0.609 4.532-1.218-1.072 1.559-2.412 2.948-3.947 4.069z" />
        </symbol>
        <symbol id="icon-facebook" viewBox="0 0 32 32">
            <path opacity="0.9"
                d="M32 1.764v28.464c0 0.979-0.793 1.764-1.764 1.764h-8.157v-12.386h4.157l0.621-4.829h-4.786v-3.086c0-1.4 0.386-2.35 2.393-2.35h2.557v-4.321c-0.443-0.057-1.957-0.193-3.729-0.193-3.686 0-6.214 2.25-6.214 6.386v3.564h-4.171v4.829h4.171v12.393h-15.314c-0.971 0-1.764-0.793-1.764-1.764v-28.471c0-0.971 0.793-1.764 1.764-1.764h28.464c0.979 0 1.771 0.793 1.771 1.764z" />
        </symbol>
        <symbol id="icon-instagram" viewBox="0 0 32 32">
            <path opacity="0.9"
                d="M16.004 7.794c-4.54 0-8.203 3.662-8.203 8.203s3.662 8.202 8.203 8.202c4.54 0 8.203-3.662 8.203-8.203s-3.662-8.203-8.203-8.203zM16.004 21.329c-2.934 0-5.333-2.392-5.333-5.333s2.392-5.333 5.333-5.333c2.941 0 5.333 2.392 5.333 5.333s-2.399 5.333-5.333 5.333zM26.455 7.458c0 1.064-0.857 1.913-1.913 1.913-1.064 0-1.913-0.857-1.913-1.913s0.857-1.913 1.913-1.913c1.057 0 1.913 0.857 1.913 1.913zM31.888 9.4c-0.121-2.563-0.707-4.833-2.584-6.703-1.87-1.87-4.141-2.456-6.703-2.584-2.641-0.15-10.558-0.15-13.2 0-2.556 0.121-4.826 0.707-6.703 2.577s-2.456 4.141-2.584 6.703c-0.15 2.641-0.15 10.558 0 13.2 0.121 2.563 0.707 4.833 2.584 6.703s4.141 2.456 6.703 2.584c2.641 0.15 10.558 0.15 13.2 0 2.563-0.121 4.833-0.707 6.703-2.584 1.87-1.87 2.456-4.141 2.584-6.703 0.15-2.641 0.15-10.551 0-13.193zM28.475 25.427c-0.557 1.399-1.635 2.477-3.041 3.041-2.106 0.835-7.103 0.642-9.43 0.642s-7.332 0.186-9.43-0.642c-1.399-0.557-2.477-1.635-3.041-3.041-0.835-2.106-0.643-7.103-0.643-9.43s-0.186-7.332 0.643-9.43c0.557-1.399 1.635-2.477 3.041-3.041 2.106-0.835 7.103-0.643 9.43-0.643s7.332-0.186 9.43 0.643c1.399 0.557 2.477 1.635 3.041 3.041 0.835 2.106 0.642 7.103 0.642 9.43s0.193 7.332-0.642 9.43z" />
        </symbol>
        <symbol id="icon-youtube" viewBox="0 0 46 32">
            <path opacity="0.9"
                d="M44.56 5.007c-0.523-1.971-2.066-3.523-4.024-4.050-3.549-0.957-17.781-0.957-17.781-0.957s-14.232 0-17.781 0.957c-1.958 0.527-3.5 2.079-4.024 4.050-0.951 3.572-0.951 11.025-0.951 11.025s0 7.453 0.951 11.025c0.523 1.971 2.066 3.458 4.024 3.985 3.549 0.957 17.781 0.957 17.781 0.957s14.232 0 17.781-0.957c1.958-0.527 3.5-2.014 4.024-3.985 0.951-3.572 0.951-11.025 0.951-11.025s0-7.453-0.951-11.025zM18.101 22.799v-13.534l11.895 6.767-11.895 6.767z" />
        </symbol>
        <symbol id="icon-mIcon" viewBox="0 0 38 32">
            <path opacity="0.9"
                d="M4.549 6.216c0.048-0.468-0.135-0.937-0.484-1.254l-3.58-4.319v-0.643h11.13l8.606 18.871 7.566-18.871h10.614v0.643l-3.064 2.937c-0.262 0.199-0.397 0.532-0.341 0.857v21.594c-0.056 0.326 0.079 0.659 0.341 0.857l2.993 2.937v0.643h-15.060v-0.643l3.104-3.009c0.302-0.302 0.302-0.397 0.302-0.857v-17.45l-8.629 21.903h-1.167l-10.035-21.903v14.679c-0.087 0.619 0.119 1.238 0.556 1.683l4.033 4.89v0.643h-11.432v-0.635l4.033-4.898c0.429-0.445 0.627-1.072 0.516-1.683v-16.973z" />
        </symbol>
    </defs>
</svg>