<svg width="91" height="19" viewBox="0 0 91 19" fill="none" xmlns="http://www.w3.org/2000/svg">
<path d="M12.392 5.16C10.776 4.36 9.136 3.96 7.472 3.96C6.72 3.96 6.152 4.096 5.768 4.368C5.384 4.624 5.192 4.968 5.192 5.4C5.192 6.072 5.712 6.552 6.752 6.84C9.264 7.512 11.032 8.32 12.056 9.264C13.08 10.192 13.592 11.384 13.592 12.84C13.592 14.6 12.984 15.944 11.768 16.872C10.552 17.784 8.72 18.24 6.272 18.24C5.248 18.24 4.144 18.072 2.96 17.736C1.792 17.384 0.856 16.952 0.152 16.44L1.232 12.72C2.048 13.28 2.928 13.72 3.872 14.04C4.832 14.36 5.712 14.52 6.512 14.52C7.952 14.52 8.672 14 8.672 12.96C8.672 12.288 8.032 11.768 6.752 11.4C4.416 10.728 2.752 9.92 1.76 8.976C0.768 8.032 0.272 6.84 0.272 5.4C0.272 3.816 0.872 2.56 2.072 1.632C3.288 0.704 5.008 0.24 7.232 0.24C9.6 0.24 11.6 0.639999 13.232 1.44L12.392 5.16ZM24.1354 18.24C22.5514 18.24 21.3754 17.88 20.6074 17.16C19.8394 16.424 19.4554 15.264 19.4554 13.68V9.12H16.9354V6H19.4554V1.44H24.1114V6H27.9754V9.12H24.1114V12.96C24.1114 13.728 24.1994 14.24 24.3754 14.496C24.5514 14.752 24.8714 14.88 25.3354 14.88C26.0394 14.88 26.7594 14.76 27.4954 14.52L27.9754 17.76C26.7914 18.08 25.5114 18.24 24.1354 18.24ZM40.7646 16.32C40.3166 16.912 39.7566 17.384 39.0846 17.736C38.4286 18.072 37.7566 18.24 37.0686 18.24C35.5646 18.24 34.4846 17.848 33.8286 17.064C33.1886 16.28 32.8686 14.912 32.8686 12.96V5.52H37.3806V12.48C37.3806 13.408 37.4686 14.024 37.6446 14.328C37.8206 14.616 38.1486 14.76 38.6286 14.76C39.1246 14.76 39.5646 14.488 39.9486 13.944C40.3486 13.4 40.5486 12.752 40.5486 12V5.52H45.1086V18H40.9086L40.8126 16.32H40.7646ZM49.4092 11.76C49.4092 9.696 49.8492 8.104 50.7292 6.984C51.6252 5.848 52.8252 5.28 54.3292 5.28C55.6892 5.28 56.8332 5.84 57.7612 6.96H57.8092V-1.43051e-06H62.3692V18H58.1692L58.0732 16.32H58.0252C57.0172 17.6 55.7852 18.24 54.3292 18.24C52.8892 18.24 51.7052 17.664 50.7772 16.512C49.8652 15.36 49.4092 13.776 49.4092 11.76ZM53.7292 11.76C53.7292 12.72 53.9212 13.464 54.3052 13.992C54.6892 14.504 55.1772 14.76 55.7692 14.76C56.3932 14.76 56.8892 14.512 57.2572 14.016C57.6252 13.52 57.8092 12.808 57.8092 11.88V11.64C57.8092 10.728 57.6252 10.024 57.2572 9.528C56.8892 9.016 56.3932 8.76 55.7692 8.76C55.1292 8.76 54.6252 9.016 54.2572 9.528C53.9052 10.024 53.7292 10.768 53.7292 11.76ZM67.9842 3.36V-1.43051e-06H72.7842V3.36H67.9842ZM67.9842 18V5.52H72.7842V18H67.9842ZM79.1813 7.008C80.3333 5.856 81.9573 5.28 84.0533 5.28C86.1493 5.28 87.7733 5.856 88.9253 7.008C90.0773 8.16 90.6533 9.744 90.6533 11.76C90.6533 13.776 90.0773 15.36 88.9253 16.512C87.7733 17.664 86.1493 18.24 84.0533 18.24C81.9573 18.24 80.3333 17.664 79.1813 16.512C78.0293 15.36 77.4533 13.776 77.4533 11.76C77.4533 9.744 78.0293 8.16 79.1813 7.008ZM82.4453 14.232C82.7973 14.728 83.3333 14.976 84.0533 14.976C84.7733 14.976 85.3093 14.728 85.6613 14.232C86.0133 13.736 86.1893 12.912 86.1893 11.76C86.1893 10.608 86.0133 9.784 85.6613 9.288C85.3093 8.792 84.7733 8.544 84.0533 8.544C83.3333 8.544 82.7973 8.792 82.4453 9.288C82.0933 9.784 81.9173 10.608 81.9173 11.76C81.9173 12.912 82.0933 13.736 82.4453 14.232Z" fill="#FCFCFC"/>
</svg>
